
<svg width="12px" height="16px" viewBox="0 0 12 16" version="1.1" xmlns="http://www.w3.org/2000/svg" xmlns:xlink="http://www.w3.org/1999/xlink">
    <!-- Generator: Sketch 48.1 (47250) - http://www.bohemiancoding.com/sketch -->
    <desc>Created with Sketch.</desc>
    <defs></defs>
    <g id="Page-1" stroke="none" stroke-width="1" fill="none" fill-rule="evenodd">
        <g id="if_00-ELASTOFONT-STORE-READY_rub_2703067" fill="#1D1D1B" fill-rule="nonzero">
            <path d="M6.2714844,0.875 L3.2216797,0.875 C2.8076172,0.875 2.4716797,1.2109375 2.4716797,1.625 L2.4716797,7.25 L1.5615234,7.25 C1.1474609,7.25 0.8115234,7.5859375 0.8115234,8 C0.8115234,8.4140625 1.1474609,8.75 1.5615234,8.75 L2.4716797,8.75 L2.4716797,9.75 L1.5615234,9.75 C1.1474609,9.75 0.8115234,10.0859375 0.8115234,10.5 C0.8115234,10.9140625 1.1474609,11.25 1.5615234,11.25 L2.4716797,11.25 L2.4716797,14.375 C2.4716797,14.7890625 2.8076172,15.125 3.2216797,15.125 C3.6357422,15.125 3.9716797,14.7890625 3.9716797,14.375 L3.9716797,11.25 L6.8300781,11.25 C7.2441406,11.25 7.5800781,10.9140625 7.5800781,10.5 C7.5800781,10.0859375 7.2441406,9.75 6.8300781,9.75 L3.9716797,9.75 L3.9716797,8.75 L6.2714844,8.75 C8.9824219,8.75 11.1884766,6.9833984 11.1884766,4.8125 C11.1884766,2.6416016 8.9824219,0.875 6.2714844,0.875 Z M6.2714844,7.25 L3.9716797,7.25 L3.9716797,2.375 L6.2714844,2.375 C8.1552735,2.375 9.6884766,3.46875 9.6884766,4.8125 C9.6884766,6.15625 8.1552734,7.25 6.2714844,7.25 Z" id="Shape"></path>
        </g>
    </g>
</svg>