<svg xmlns="http://www.w3.org/2000/svg" width="25" height="35" viewBox="0 0 25 35">
  <metadata><?xpacket begin="﻿" id="W5M0MpCehiHzreSzNTczkc9d"?>
<x:xmpmeta xmlns:x="adobe:ns:meta/" x:xmptk="Adobe XMP Core 5.6-c138 79.159824, 2016/09/14-01:09:01        ">
   <rdf:RDF xmlns:rdf="http://www.w3.org/1999/02/22-rdf-syntax-ns#">
      <rdf:Description rdf:about=""/>
   </rdf:RDF>
</x:xmpmeta>
                                                                                                    
                                                                                                    
                                                                                                    
                                                                                                    
                                                                                                    
                                                                                                    
                                                                                                    
                                                                                                    
                                                                                                    
                                                                                                    
                                                                                                    
                                                                                                    
                                                                                                    
                                                                                                    
                                                                                                    
                                                                                                    
                                                                                                    
                                                                                                    
                                                                                                    
                                                                                                    
                           
<?xpacket end="w"?></metadata>
<defs>
    <style>
      .cls-1 {
        fill: #fff;
        fill-rule: evenodd;
      }
    </style>
  </defs>
  <path id="icon-j2" class="cls-1" d="M749.99,1313H726.984a1.011,1.011,0,0,0-1,1.02v32.96a1.011,1.011,0,0,0,1,1.02h17.493a0.991,0.991,0,0,0,.705-0.3l5.512-5.63a1.033,1.033,0,0,0,.293-0.72v-27.33A1.011,1.011,0,0,0,749.99,1313Zm-2.4,29.36-2.113,2.16,0-2.16h2.115Zm-4.105,3.6h-15.5v-30.92h21.013v25.29l-4.521-.01a0.991,0.991,0,0,0-.7.3,1.046,1.046,0,0,0-.292.72Zm-10.308-8.29a3.456,3.456,0,1,0,3.38,3.46A3.424,3.424,0,0,0,733.172,1337.67Zm1.387,3.46a1.387,1.387,0,1,1-1.387-1.42A1.4,1.4,0,0,1,734.559,1341.13Zm-3.87-15.43h15.6a1.02,1.02,0,0,0,0-2.04h-15.6A1.02,1.02,0,0,0,730.689,1325.7Zm0,3.66h15.6a1.015,1.015,0,0,0,0-2.03h-15.6A1.015,1.015,0,0,0,730.689,1329.36Zm15.762,3.82a1.4,1.4,0,0,0,.83-1.19,1.011,1.011,0,0,0-1-1.02h-15.6a1.011,1.011,0,0,0-1,1.02,1.4,1.4,0,0,0,.83,1.19l0.077,0.05h15.775Z" transform="translate(-726 -1313)"/>
</svg>
