<svg
        xmlns="http://www.w3.org/2000/svg"
        xmlns:xlink="http://www.w3.org/1999/xlink"
        width="17px" height="17px">
    <path fill-rule="evenodd"  fill="rgb(60, 183, 223)"
          d="M15.860,12.766 C15.100,14.068 14.069,15.099 12.767,15.859 C11.464,16.619 10.042,16.999 8.500,16.999 C6.958,16.999 5.536,16.619 4.233,15.859 C2.931,15.099 1.900,14.068 1.140,12.766 C0.380,11.463 -0.000,10.041 -0.000,8.499 C-0.000,6.957 0.380,5.535 1.140,4.232 C1.900,2.930 2.931,1.899 4.234,1.139 C5.536,0.379 6.958,-0.001 8.500,-0.001 C10.042,-0.001 11.464,0.379 12.767,1.139 C14.069,1.899 15.100,2.931 15.860,4.232 C16.620,5.535 17.000,6.957 17.000,8.499 C17.000,10.041 16.620,11.463 15.860,12.766 ZM13.713,5.478 C13.174,4.555 12.444,3.825 11.522,3.286 C10.599,2.747 9.592,2.478 8.500,2.478 C7.408,2.478 6.401,2.747 5.478,3.286 C4.556,3.825 3.826,4.555 3.287,5.478 C2.749,6.400 2.479,7.407 2.479,8.499 C2.479,9.591 2.748,10.599 3.287,11.521 C3.826,12.443 4.556,13.174 5.478,13.712 C6.401,14.251 7.408,14.520 8.500,14.520 C9.592,14.520 10.599,14.251 11.522,13.712 C12.444,13.174 13.174,12.443 13.713,11.521 C14.252,10.599 14.521,9.591 14.521,8.499 C14.521,7.407 14.252,6.400 13.713,5.478 ZM9.563,9.916 L6.021,9.916 C5.918,9.916 5.833,9.883 5.766,9.816 C5.700,9.750 5.667,9.665 5.667,9.562 L5.667,8.853 C5.667,8.750 5.700,8.665 5.766,8.599 C5.833,8.532 5.918,8.499 6.021,8.499 L8.500,8.499 L8.500,4.603 C8.500,4.500 8.533,4.415 8.599,4.349 C8.666,4.283 8.751,4.249 8.854,4.249 L9.563,4.249 C9.666,4.249 9.751,4.283 9.817,4.349 C9.883,4.415 9.917,4.500 9.917,4.603 L9.917,9.562 C9.917,9.665 9.883,9.750 9.817,9.816 C9.751,9.883 9.666,9.916 9.563,9.916 Z"/>
</svg>