<svg xmlns="http://www.w3.org/2000/svg" width="73" height="74" viewBox="0 0 73 74">
  <metadata><?xpacket begin="﻿" id="W5M0MpCehiHzreSzNTczkc9d"?>
<x:xmpmeta xmlns:x="adobe:ns:meta/" x:xmptk="Adobe XMP Core 5.6-c138 79.159824, 2016/09/14-01:09:01        ">
   <rdf:RDF xmlns:rdf="http://www.w3.org/1999/02/22-rdf-syntax-ns#">
      <rdf:Description rdf:about=""/>
   </rdf:RDF>
</x:xmpmeta>
                                                                                                    
                                                                                                    
                                                                                                    
                                                                                                    
                                                                                                    
                                                                                                    
                                                                                                    
                                                                                                    
                                                                                                    
                                                                                                    
                                                                                                    
                                                                                                    
                                                                                                    
                                                                                                    
                                                                                                    
                                                                                                    
                                                                                                    
                                                                                                    
                                                                                                    
                                                                                                    
                           
<?xpacket end="w"?></metadata>
<defs>
    <style>
      .cls-1 {
        fill: #40bfe8;
        fill-rule: evenodd;
      }
    </style>
  </defs>
  <path id="icon5" class="cls-1" d="M1245.3,2015.02a3.44,3.44,0,1,0-3.43-3.44A3.438,3.438,0,0,0,1245.3,2015.02Zm12.19-12.86v-15.85a7.364,7.364,0,0,0-7.34-7.37h-4.55l-4.77-8.6a4.547,4.547,0,0,0-3.97-2.34,4.593,4.593,0,0,0-2.2.57l-18.57,10.37h-20.75a7.364,7.364,0,0,0-7.34,7.37v48.32a7.364,7.364,0,0,0,7.34,7.37h54.81a7.364,7.364,0,0,0,7.34-7.37v-13.86H1261v-18.61h-3.51Zm-9.96-19.74h2.62a3.854,3.854,0,0,1,3.77,3.09h-4.68Zm-56.06,3.89a3.89,3.89,0,0,1,3.87-3.89h14.51l-5.53,3.09h-8.1a1.74,1.74,0,0,0,0,3.48h57.8v13.17h-9.92a9,9,0,0,0-8.97,9v0.61a9,9,0,0,0,8.97,9h9.92v13.86a3.884,3.884,0,0,1-3.87,3.89h-54.81a3.89,3.89,0,0,1-3.87-3.89v-48.32Zm47.13,24.85a5.52,5.52,0,0,1,5.5-5.52h13.43v11.65H1244.1a5.52,5.52,0,0,1-5.5-5.52v-0.61Zm-27.14-25.65,24.89-13.89h0a1.01,1.01,0,0,1,.8-0.09,1.068,1.068,0,0,1,.65.5l7.47,13.48h-33.81Z" transform="translate(-1188 -1968)"/>
</svg>
