<svg
        xmlns="http://www.w3.org/2000/svg"
        xmlns:xlink="http://www.w3.org/1999/xlink"
        width="21px" height="17px">
    <path fill-rule="evenodd"  fill="rgb(60, 183, 223)"
          d="M20.045,16.994 L0.954,16.994 C0.428,16.994 -0.000,16.566 -0.000,16.036 L-0.000,4.066 C-0.000,3.537 0.427,3.108 0.954,3.108 L5.595,3.108 L6.716,0.297 C6.788,0.115 6.964,-0.004 7.159,-0.004 L13.841,-0.004 C14.036,-0.004 14.212,0.115 14.284,0.297 L15.405,3.108 L20.045,3.108 C20.572,3.108 21.000,3.537 21.000,4.066 L21.000,16.036 C21.000,16.566 20.573,16.994 20.045,16.994 ZM13.518,0.954 L7.482,0.954 L6.623,3.109 L14.377,3.109 L13.518,0.954 ZM2.666,5.024 C4.464,6.609 7.723,9.093 10.500,9.093 C13.276,9.093 16.536,6.609 18.334,5.024 L2.666,5.024 ZM19.091,5.640 C17.227,7.307 13.675,10.052 10.500,10.052 C7.324,10.052 3.774,7.307 1.909,5.640 L1.909,15.079 L19.091,15.079 L19.091,5.640 ZM10.500,8.021 C9.841,8.021 9.307,7.485 9.307,6.825 C9.307,6.164 9.841,5.628 10.500,5.628 C11.159,5.628 11.693,6.164 11.693,6.825 C11.693,7.485 11.159,8.021 10.500,8.021 Z"/>
    <path fill-rule="evenodd"  fill="rgb(60, 183, 223)"
          d="M20.045,16.994 L0.954,16.994 C0.428,16.994 -0.000,16.566 -0.000,16.036 L-0.000,4.066 C-0.000,3.537 0.427,3.108 0.954,3.108 L5.595,3.108 L6.716,0.297 C6.788,0.115 6.964,-0.004 7.159,-0.004 L13.841,-0.004 C14.036,-0.004 14.212,0.115 14.284,0.297 L15.405,3.108 L20.045,3.108 C20.572,3.108 21.000,3.537 21.000,4.066 L21.000,16.036 C21.000,16.566 20.573,16.994 20.045,16.994 ZM13.518,0.954 L7.482,0.954 L6.623,3.109 L14.377,3.109 L13.518,0.954 ZM2.666,5.024 C4.464,6.609 7.723,9.093 10.500,9.093 C13.276,9.093 16.536,6.609 18.334,5.024 L2.666,5.024 ZM19.091,5.640 C17.227,7.307 13.675,10.052 10.500,10.052 C7.324,10.052 3.774,7.307 1.909,5.640 L1.909,15.079 L19.091,15.079 L19.091,5.640 ZM10.500,8.021 C9.841,8.021 9.307,7.485 9.307,6.825 C9.307,6.164 9.841,5.628 10.500,5.628 C11.159,5.628 11.693,6.164 11.693,6.825 C11.693,7.485 11.159,8.021 10.500,8.021 Z"/>
</svg>