<svg
        xmlns="http://www.w3.org/2000/svg"
        xmlns:xlink="http://www.w3.org/1999/xlink"
        width="97px" height="105px">
    <path fill-rule="evenodd"  fill="rgb(61, 191, 232)"
          d="M95.560,68.406 L89.351,74.625 L63.998,99.962 C63.689,100.270 63.269,100.433 62.766,100.579 L47.934,104.897 C47.730,104.956 47.472,105.000 47.113,105.000 C45.522,105.000 44.290,103.663 44.290,102.378 C44.290,102.069 44.356,101.765 44.444,101.453 L48.652,86.497 C48.723,86.245 48.960,85.778 49.422,85.212 L74.622,59.978 L80.933,53.759 C81.865,52.841 82.935,52.371 84.115,52.371 C85.501,52.371 86.681,52.885 87.759,53.964 L95.663,61.879 C96.535,62.753 96.997,63.935 96.997,65.323 C96.843,66.555 96.381,67.584 95.560,68.406 ZM53.938,88.707 L51.219,98.061 L60.559,95.440 L83.345,72.621 L76.623,65.991 L53.938,88.707 ZM84.218,58.383 L80.626,61.981 L87.348,68.611 L90.839,65.014 L84.218,58.383 ZM12.727,87.576 L33.205,87.576 C34.796,87.576 36.079,88.809 36.079,90.403 C36.079,91.996 34.796,93.229 33.205,93.229 L12.727,93.229 C11.137,93.229 9.905,91.996 9.905,90.403 C9.905,88.809 11.137,87.576 12.727,87.576 ZM12.727,74.830 L33.205,74.830 C34.796,74.830 36.079,76.063 36.079,77.656 C36.079,79.250 34.796,80.483 33.205,80.483 L12.727,80.483 C11.137,80.483 9.905,79.250 9.905,77.656 C9.905,76.063 11.137,74.830 12.727,74.830 ZM12.727,55.146 C11.137,55.146 9.905,53.861 9.905,52.268 C9.905,50.674 11.137,49.441 12.727,49.441 L56.864,49.441 C58.454,49.441 59.686,50.674 59.686,52.268 C59.686,53.861 58.455,55.146 56.864,55.146 L12.727,55.146 ZM56.864,67.892 L12.727,67.892 C11.137,67.892 9.905,66.607 9.905,65.014 C9.905,63.420 11.137,62.187 12.727,62.187 L56.864,62.187 C58.455,62.187 59.686,63.420 59.686,65.014 C59.686,66.607 58.454,67.892 56.864,67.892 ZM63.895,42.504 L33.410,42.504 C29.920,42.504 27.252,39.677 27.252,36.182 L27.252,5.653 L6.210,5.653 C5.850,5.653 5.696,5.807 5.696,6.167 L5.696,98.831 C5.696,99.191 5.850,99.345 6.210,99.345 L39.723,99.345 L39.723,104.998 L6.210,104.998 C2.719,104.998 -0.000,102.326 -0.000,98.831 L-0.000,6.167 C-0.000,4.471 0.615,2.981 1.796,1.799 C2.977,0.616 4.464,-0.000 6.210,-0.000 L27.252,-0.000 L32.794,-0.000 L32.897,0.103 L69.489,36.799 L69.592,36.799 L69.592,42.504 L69.592,59.773 L63.895,59.773 L63.895,42.504 ZM32.897,8.171 L32.897,36.182 C32.897,36.592 33.050,36.798 33.409,36.798 L61.483,36.798 L32.897,8.171 Z"/>
</svg>