<svg
        xmlns="http://www.w3.org/2000/svg"
        xmlns:xlink="http://www.w3.org/1999/xlink"
        width="115px" height="105px">
    <path fill-rule="evenodd"  fill="rgb(61, 191, 232)"
          d="M87.985,24.752 C87.985,28.244 85.449,30.368 83.597,31.926 C82.895,32.516 81.590,33.593 81.593,33.996 C81.606,35.574 80.340,36.834 78.765,36.834 C78.757,36.834 78.749,36.834 78.741,36.834 C77.177,36.834 75.903,35.613 75.891,34.042 C75.866,30.947 78.119,29.094 79.930,27.570 C81.351,26.374 82.282,25.533 82.282,24.762 C82.282,23.203 81.017,21.935 79.462,21.935 C77.906,21.935 76.641,23.203 76.641,24.762 C76.641,26.341 75.364,27.620 73.789,27.620 C72.214,27.620 70.938,26.341 70.938,24.762 C70.938,20.052 74.762,16.219 79.461,16.219 C84.161,16.219 87.985,20.041 87.985,24.752 ZM78.820,39.473 C77.245,39.473 76.032,40.752 76.032,42.330 L76.032,42.352 C76.032,43.931 77.246,45.200 78.820,45.200 C80.395,45.200 81.671,43.909 81.671,42.330 C81.671,40.752 80.395,39.473 78.820,39.473 ZM21.350,59.381 C19.775,59.381 18.499,60.660 18.499,62.239 C18.499,63.817 19.775,65.097 21.350,65.097 L21.587,65.097 C23.162,65.097 24.439,63.817 24.439,62.239 C24.439,60.660 23.162,59.381 21.587,59.381 L21.350,59.381 ZM31.259,59.381 C29.684,59.381 28.408,60.660 28.408,62.239 C28.408,63.817 29.684,65.097 31.259,65.097 L31.496,65.097 C33.071,65.097 34.347,63.817 34.347,62.239 C34.347,60.660 33.071,59.381 31.496,59.381 L31.259,59.381 ZM114.998,13.733 L114.998,45.901 C114.998,53.518 108.906,59.699 101.307,59.699 L64.331,59.699 C63.608,59.699 63.013,59.694 62.515,59.684 C61.993,59.673 61.406,59.669 61.177,59.694 C60.938,59.853 60.354,60.390 59.790,60.911 C59.567,61.117 59.314,61.343 59.041,61.593 L48.580,71.151 C47.745,71.914 46.511,72.111 45.477,71.655 C44.444,71.197 43.718,70.172 43.718,69.040 L43.718,38.740 L13.850,38.740 C9.396,38.740 5.702,42.399 5.702,46.864 L5.702,79.033 C5.702,83.497 9.396,87.008 13.850,87.008 L55.153,87.008 C55.864,87.008 56.529,87.336 57.055,87.816 L65.578,95.693 L65.578,68.529 C65.578,66.951 66.854,65.672 68.429,65.672 C70.004,65.672 71.280,66.951 71.280,68.529 L71.280,102.170 C71.280,103.302 70.634,104.313 69.600,104.770 C69.230,104.933 68.859,104.998 68.470,104.998 C67.772,104.998 67.083,104.711 66.548,104.220 L54.048,92.724 L13.850,92.724 C6.252,92.724 -0.000,86.649 -0.000,79.032 L-0.000,46.864 C-0.000,39.248 6.252,33.024 13.850,33.024 L43.718,33.024 L43.718,13.733 C43.718,6.116 50.018,-0.001 57.617,-0.001 L101.308,-0.001 C108.906,-0.001 114.998,6.116 114.998,13.733 ZM109.296,13.733 C109.296,9.268 105.761,5.715 101.307,5.715 L57.617,5.715 C53.162,5.715 49.421,9.268 49.421,13.733 L49.421,35.909 L49.421,62.562 L55.153,57.369 C55.419,57.127 55.716,56.904 55.933,56.703 C58.551,54.286 59.221,53.899 62.635,53.970 C63.101,53.979 63.656,53.983 64.331,53.983 L101.307,53.983 C105.761,53.983 109.296,50.367 109.296,45.902 L109.296,13.733 L109.296,13.733 Z"/>
</svg>