<svg xmlns="http://www.w3.org/2000/svg" width="39" height="36.75" viewBox="0 0 39 36.75">
  <metadata><?xpacket begin="﻿" id="W5M0MpCehiHzreSzNTczkc9d"?>
<x:xmpmeta xmlns:x="adobe:ns:meta/" x:xmptk="Adobe XMP Core 5.6-c138 79.159824, 2016/09/14-01:09:01        ">
   <rdf:RDF xmlns:rdf="http://www.w3.org/1999/02/22-rdf-syntax-ns#">
      <rdf:Description rdf:about=""/>
   </rdf:RDF>
</x:xmpmeta>
                                                                                                    
                                                                                                    
                                                                                                    
                                                                                                    
                                                                                                    
                                                                                                    
                                                                                                    
                                                                                                    
                                                                                                    
                                                                                                    
                                                                                                    
                                                                                                    
                                                                                                    
                                                                                                    
                                                                                                    
                                                                                                    
                                                                                                    
                                                                                                    
                                                                                                    
                                                                                                    
                           
<?xpacket end="w"?></metadata>
<defs>
    <style>
      .cls-1 {
        fill: #fff;
        fill-rule: evenodd;
      }
    </style>
  </defs>
  <path id="icon-j1" class="cls-1" d="M741.4,1262.21a3.074,3.074,0,0,0-2.264-1.03,3.17,3.17,0,0,0-2.278,1.02l-1.806,1.81a2.177,2.177,0,0,0-.222-0.11l-0.178-.09c-0.182-.1-0.353-0.19-0.5-0.28a20.686,20.686,0,0,1-4.992-4.56,12.665,12.665,0,0,1-1.555-2.4c0.483-.46.928-0.91,1.3-1.29l0.521-.52a3.065,3.065,0,0,0,0-4.61l-1.675-1.68c-0.1-.1-0.189-0.19-0.284-0.29s-0.19-.2-0.284-0.29c-0.405-.42-0.793-0.81-1.148-1.14a3.14,3.14,0,0,0-2.246-.99,3.261,3.261,0,0,0-2.278.99l-2.1,2.11a4.724,4.724,0,0,0-1.4,3.01,11.1,11.1,0,0,0,.805,4.68,26.859,26.859,0,0,0,4.739,7.93,29.042,29.042,0,0,0,9.714,7.62,15.321,15.321,0,0,0,5.5,1.62h0.007c0.134,0.01.269,0.01,0.4,0.01a4.868,4.868,0,0,0,3.725-1.6l0.038-.04a13.252,13.252,0,0,1,1.041-1.08l0.017-.01c0.269-.26.54-0.53,0.8-0.81a3.126,3.126,0,0,0-.018-4.6Zm-20.569-6.42a8.515,8.515,0,0,1-.673-3.74,2.631,2.631,0,0,1,.8-1.69l2.07-2.07a1.175,1.175,0,0,1,.767-0.37,1.057,1.057,0,0,1,.744.38c0.364,0.34.715,0.7,1.086,1.08l0.017,0.01c0.19,0.2.388,0.4,0.586,0.6l1.676,1.68a1.211,1.211,0,0,1,.41.77,1.193,1.193,0,0,1-.41.78c-0.182.18-.357,0.36-0.536,0.54-0.513.53-1,1.02-1.527,1.49l-0.04.04a1.509,1.509,0,0,0-.375,1.66l0.027,0.07a13.617,13.617,0,0,0,2.032,3.31,22.832,22.832,0,0,0,5.512,5.03,6.705,6.705,0,0,0,.716.4l0.151,0.07c0.179,0.1.349,0.18,0.5,0.28a0.085,0.085,0,0,0,.039.02c0.015,0.01.031,0.02,0.049,0.03a1.5,1.5,0,0,0,1.83-.32l2.1-2.11a1.136,1.136,0,0,1,.75-0.39,1.036,1.036,0,0,1,.718.39l3.391,3.4a0.97,0.97,0,0,1-.027,1.57c-0.179.2-.372,0.38-0.577,0.58l-0.329.32c-0.346.34-.7,0.69-1.03,1.08a2.748,2.748,0,0,1-2.123.89,2.464,2.464,0,0,1-.269-0.01,13.061,13.061,0,0,1-4.7-1.42,27.035,27.035,0,0,1-8.982-7.05h0A24.669,24.669,0,0,1,720.835,1255.79Zm23.878-18.8c-6.78,0-12.3,4.9-12.3,10.93a10.2,10.2,0,0,0,2.3,6.37,3.184,3.184,0,0,1-1.1,1.2,1.4,1.4,0,0,0,.569,2.55,7.8,7.8,0,0,0,4.991-.93,1.093,1.093,0,0,0,.494-0.67,1.074,1.074,0,0,0-.123-0.82,1.091,1.091,0,0,0-1.484-.37,4.761,4.761,0,0,1-1.783.63,5.908,5.908,0,0,0,.723-1.39,1.109,1.109,0,0,0-.221-1.12,7.991,7.991,0,0,1-2.207-5.46c0-4.83,4.545-8.76,10.132-8.76s10.131,3.93,10.131,8.76-4.545,8.77-10.131,8.77a11.631,11.631,0,0,1-2.772-.33,1.069,1.069,0,0,0-.817.13,1.05,1.05,0,0,0-.49.67,1.076,1.076,0,0,0,.795,1.3,13.463,13.463,0,0,0,3.284.4c6.779,0,12.3-4.9,12.3-10.93S751.492,1236.99,744.713,1236.99Zm1.141,10.93a1.142,1.142,0,1,0-1.141,1.15A1.141,1.141,0,0,0,745.854,1247.92Zm3.66,0a1.142,1.142,0,1,0-1.141,1.15A1.141,1.141,0,0,0,749.514,1247.92Zm-7.32,0a1.142,1.142,0,1,0-1.141,1.15A1.141,1.141,0,0,0,742.194,1247.92Z" transform="translate(-718 -1237)"/>
</svg>
