<svg xmlns="http://www.w3.org/2000/svg" width="72" height="72.09" viewBox="0 0 72 72.09">
  <metadata><?xpacket begin="﻿" id="W5M0MpCehiHzreSzNTczkc9d"?>
<x:xmpmeta xmlns:x="adobe:ns:meta/" x:xmptk="Adobe XMP Core 5.6-c138 79.159824, 2016/09/14-01:09:01        ">
   <rdf:RDF xmlns:rdf="http://www.w3.org/1999/02/22-rdf-syntax-ns#">
      <rdf:Description rdf:about=""/>
   </rdf:RDF>
</x:xmpmeta>
                                                                                                    
                                                                                                    
                                                                                                    
                                                                                                    
                                                                                                    
                                                                                                    
                                                                                                    
                                                                                                    
                                                                                                    
                                                                                                    
                                                                                                    
                                                                                                    
                                                                                                    
                                                                                                    
                                                                                                    
                                                                                                    
                                                                                                    
                                                                                                    
                                                                                                    
                                                                                                    
                           
<?xpacket end="w"?></metadata>
<defs>
    <style>
      .cls-1 {
        fill: #40bfe8;
        fill-rule: evenodd;
      }
    </style>
  </defs>
  <path id="icon2" class="cls-1" d="M442.514,2043.08a1.538,1.538,0,0,1-1.535-1.54v-29.43l-0.813.29a5.831,5.831,0,0,1-6.061-9.62l30.322-30.07a5.81,5.81,0,0,1,8.233,0l7.217,7.23v-3.1a1.538,1.538,0,0,1,1.535-1.54h8.58a1.539,1.539,0,0,1,1.535,1.54v14.76l11.164,11.18a5.83,5.83,0,0,1-4.118,9.95h0a5.828,5.828,0,0,1-1.943-.33l-0.813-.29v29.43a1.538,1.538,0,0,1-1.535,1.54H442.514Zm34.607-24.83a1.536,1.536,0,0,1,1.535,1.53v20.23h14.091v-30.7l-24.212-24.23-24.486,24.25v30.68h14.376v-20.23a1.537,1.537,0,0,1,1.535-1.53h17.161ZM461.5,2040.01h14.091v-18.69H461.5v18.69Zm7.046-58.64a1.524,1.524,0,0,1,1.085.45c2.216,2.22,26.077,26.11,27,27.03a2.756,2.756,0,1,0,3.9-3.9c-0.861-.86-28.153-28.18-30.031-30.06a2.747,2.747,0,0,0-3.9,0l-30.323,30.06a2.758,2.758,0,1,0,3.9,3.9c1.049-1.04,26.019-25.77,27.29-27.03A1.516,1.516,0,0,1,468.541,1981.37Zm14.405,1.64,5.511,5.52v-10.16h-5.511v4.64Zm-14.405,29.72a7.98,7.98,0,1,1,7.97-7.98A7.985,7.985,0,0,1,468.541,2012.73Zm0-12.88a4.905,4.905,0,1,0,4.9,4.9A4.908,4.908,0,0,0,468.541,1999.85Z" transform="translate(-432.406 -1971)"/>
</svg>
