<svg xmlns="http://www.w3.org/2000/svg" width="70.969" height="69.09" viewBox="0 0 70.969 69.09">
  <metadata><?xpacket begin="﻿" id="W5M0MpCehiHzreSzNTczkc9d"?>
<x:xmpmeta xmlns:x="adobe:ns:meta/" x:xmptk="Adobe XMP Core 5.6-c138 79.159824, 2016/09/14-01:09:01        ">
   <rdf:RDF xmlns:rdf="http://www.w3.org/1999/02/22-rdf-syntax-ns#">
      <rdf:Description rdf:about=""/>
   </rdf:RDF>
</x:xmpmeta>
                                                                                                    
                                                                                                    
                                                                                                    
                                                                                                    
                                                                                                    
                                                                                                    
                                                                                                    
                                                                                                    
                                                                                                    
                                                                                                    
                                                                                                    
                                                                                                    
                                                                                                    
                                                                                                    
                                                                                                    
                                                                                                    
                                                                                                    
                                                                                                    
                                                                                                    
                                                                                                    
                           
<?xpacket end="w"?></metadata>
<defs>
    <style>
      .cls-1 {
        fill: #40bfe8;
        fill-rule: evenodd;
      }
    </style>
  </defs>
  <path id="icon3" class="cls-1" d="M687.367,2041.7v-61.67a1.406,1.406,0,0,1,1.428-1.38H708.65a1.4,1.4,0,0,0,1.428-1.37v-1.9a1.4,1.4,0,0,1,1.429-1.37h0a1.4,1.4,0,0,1,1.428,1.37v1.9a1.4,1.4,0,0,0,1.429,1.37h17a1.4,1.4,0,0,0,1.428-1.37v-1.9a1.4,1.4,0,0,1,1.429-1.37h0a1.4,1.4,0,0,1,1.428,1.37v1.9a1.4,1.4,0,0,0,1.429,1.37h19.855a1.406,1.406,0,0,1,1.428,1.38v43.03a1.344,1.344,0,0,1-.364.92l-17.3,18.64a1.461,1.461,0,0,1-1.065.46H688.8A1.406,1.406,0,0,1,687.367,2041.7Zm4.285-1.7h45.172a1.407,1.407,0,0,0,1.429-1.38v-15.83a1.406,1.406,0,0,1,1.428-1.38h14.393a1.406,1.406,0,0,0,1.428-1.38v-22.05a1.406,1.406,0,0,0-1.428-1.38H691.652a1.407,1.407,0,0,0-1.429,1.38v40.64A1.407,1.407,0,0,0,691.652,2040Zm51.95-4.86,7.751-8.36a1.37,1.37,0,0,0-1.065-2.29h-7.75a1.4,1.4,0,0,0-1.428,1.38v8.35A1.438,1.438,0,0,0,743.6,2035.14Zm-51.95-41.61h62.422a1.406,1.406,0,0,0,1.428-1.38v-9.04a1.406,1.406,0,0,0-1.428-1.38h-17a1.407,1.407,0,0,0-1.429,1.38v0.96a1.406,1.406,0,0,1-1.428,1.38h0a1.406,1.406,0,0,1-1.428-1.38v-0.96a1.407,1.407,0,0,0-1.429-1.38h-17a1.407,1.407,0,0,0-1.429,1.38V1985a1.406,1.406,0,0,1-1.428,1.38h0a1.407,1.407,0,0,1-1.429-1.38v-1.89a1.406,1.406,0,0,0-1.428-1.38h-17a1.407,1.407,0,0,0-1.429,1.38v9.04A1.407,1.407,0,0,0,691.652,1993.53Zm12.533,35.16v-4.04a1.406,1.406,0,0,1,1.428-1.38h3.45a1.407,1.407,0,0,1,1.429,1.38v4.04a1.407,1.407,0,0,1-1.429,1.38h-3.45A1.406,1.406,0,0,1,704.185,2028.69Zm15.524,0v-4.04a1.407,1.407,0,0,1,1.429-1.38h3.45a1.406,1.406,0,0,1,1.428,1.38v4.04a1.406,1.406,0,0,1-1.428,1.38h-3.45A1.407,1.407,0,0,1,719.709,2028.69Zm0-16.73v-4.04a1.4,1.4,0,0,1,1.429-1.38h3.45a1.4,1.4,0,0,1,1.428,1.38v4.04a1.4,1.4,0,0,1-1.428,1.37h-3.45A1.4,1.4,0,0,1,719.709,2011.96Zm15.525,0v-4.04a1.4,1.4,0,0,1,1.429-1.38h3.449a1.4,1.4,0,0,1,1.429,1.38v4.04a1.4,1.4,0,0,1-1.429,1.37h-3.449A1.4,1.4,0,0,1,735.234,2011.96Zm-31.049,0v-4.04a1.4,1.4,0,0,1,1.428-1.38h3.45a1.4,1.4,0,0,1,1.429,1.38v4.04a1.4,1.4,0,0,1-1.429,1.37h-3.45A1.4,1.4,0,0,1,704.185,2011.96Z" transform="translate(-687.375 -1974)"/>
</svg>
