<svg xmlns="http://www.w3.org/2000/svg" width="63.032" height="75.09" viewBox="0 0 63.032 75.09">
  <metadata><?xpacket begin="﻿" id="W5M0MpCehiHzreSzNTczkc9d"?>
<x:xmpmeta xmlns:x="adobe:ns:meta/" x:xmptk="Adobe XMP Core 5.6-c138 79.159824, 2016/09/14-01:09:01        ">
   <rdf:RDF xmlns:rdf="http://www.w3.org/1999/02/22-rdf-syntax-ns#">
      <rdf:Description rdf:about=""/>
   </rdf:RDF>
</x:xmpmeta>
                                                                                                    
                                                                                                    
                                                                                                    
                                                                                                    
                                                                                                    
                                                                                                    
                                                                                                    
                                                                                                    
                                                                                                    
                                                                                                    
                                                                                                    
                                                                                                    
                                                                                                    
                                                                                                    
                                                                                                    
                                                                                                    
                                                                                                    
                                                                                                    
                                                                                                    
                                                                                                    
                           
<?xpacket end="w"?></metadata>
<defs>
    <style>
      .cls-1 {
        fill: #40bfe8;
        fill-rule: evenodd;
      }
    </style>
  </defs>
  <path id="icon1" class="cls-1" d="M240.947,1968H189.925a1.491,1.491,0,0,0-1.484,1.5v51.18l-7.617,7.67a4.889,4.889,0,0,0,0,6.87,4.784,4.784,0,0,0,6.823,0l0.793-.79v7.15a1.492,1.492,0,0,0,1.485,1.5h38.8a1.484,1.484,0,0,0,1.05-.44L242,2030.32a1.492,1.492,0,0,0,.435-1.05V1969.5A1.491,1.491,0,0,0,240.947,1968Zm-55.4,65.11a1.846,1.846,0,0,1-2.624,0,1.878,1.878,0,0,1,0-2.64l14.223-14.33,2.624,2.64Zm44.655,4.87-0.006-7.23,7.169,0.01Zm9.26-10.21-10.751-.01h0a1.492,1.492,0,0,0-1.484,1.5l0.009,10.83H191.41v-8.66l11.51-11.59a1.509,1.509,0,0,0,0-2.12l-1.358-1.37,2.839-2.86a17.426,17.426,0,0,0,11.258,4.12,17.688,17.688,0,1,0-13.37-6.22l-2.826,2.85-1.266-1.28a1.473,1.473,0,0,0-2.1,0l-4.687,4.73v-46.7h48.053v56.78h0Zm-38.426-27.88a14.622,14.622,0,1,1,14.622,14.73A14.688,14.688,0,0,1,201.037,1999.89Zm23.009-1.42H207.42a1.5,1.5,0,0,0,0,2.99h16.626A1.5,1.5,0,0,0,224.046,1998.47Zm0,5.83H207.42a1.5,1.5,0,0,0,0,2.99h16.626A1.5,1.5,0,0,0,224.046,2004.3Zm-9.946-11.82h-6.68a1.5,1.5,0,0,0,0,2.99h6.68A1.5,1.5,0,0,0,214.1,1992.48Zm5.344,0h-0.891a1.5,1.5,0,0,0,0,2.99h0.891A1.5,1.5,0,0,0,219.444,1992.48Z" transform="translate(-179.406 -1968)"/>
</svg>
