<svg xmlns="http://www.w3.org/2000/svg" width="91" height="90" viewBox="0 0 91 90">
  <metadata><?xpacket begin="﻿" id="W5M0MpCehiHzreSzNTczkc9d"?>
<x:xmpmeta xmlns:x="adobe:ns:meta/" x:xmptk="Adobe XMP Core 5.6-c138 79.159824, 2016/09/14-01:09:01        ">
   <rdf:RDF xmlns:rdf="http://www.w3.org/1999/02/22-rdf-syntax-ns#">
      <rdf:Description rdf:about=""/>
   </rdf:RDF>
</x:xmpmeta>
                                                                                                    
                                                                                                    
                                                                                                    
                                                                                                    
                                                                                                    
                                                                                                    
                                                                                                    
                                                                                                    
                                                                                                    
                                                                                                    
                                                                                                    
                                                                                                    
                                                                                                    
                                                                                                    
                                                                                                    
                                                                                                    
                                                                                                    
                                                                                                    
                                                                                                    
                                                                                                    
                           
<?xpacket end="w"?></metadata>
<defs>
    <style>
      .cls-1 {
        fill: #40bfe8;
        fill-rule: evenodd;
      }
    </style>
  </defs>
  <path id="icon4" class="cls-1" d="M1012.68,2052a1.551,1.551,0,0,1-1.06-.43l-21.273-21.11-0.263.14a30.885,30.885,0,0,1-39.9-8.62l-0.119-.17H933.489a1.482,1.482,0,0,1-1.489-1.47v-8.38a8.552,8.552,0,0,1,4.529-7.53l0.4-.22-0.266-.36a5.934,5.934,0,0,1-1.152-3.52v-4.34a6.053,6.053,0,0,1,6.071-6.02h2.062a5.543,5.543,0,0,1,3.129.96l0.38,0.26,0.2-.41a30.829,30.829,0,0,1,55.4.17l0.2,0.42,0.39-.27a6,6,0,0,1,3.52-1.13h2.07a5.565,5.565,0,0,1,5.57,5.54v5.3a5.5,5.5,0,0,1-.98,3.14l-0.25.35,0.38,0.22a8.579,8.579,0,0,1,4.36,7.44v8.38a1.477,1.477,0,0,1-1.49,1.47h-13.01l19.05,18.9a1.435,1.435,0,0,1,.44,1.05,1.47,1.47,0,0,1-.44,1.04l-8.83,8.77A1.508,1.508,0,0,1,1012.68,2052Zm-22.106-24.88a1.478,1.478,0,0,1,1.053.43l21.053,20.88,6.73-6.67-20.98-20.81a1.47,1.47,0,0,1-.193-1.85,27.268,27.268,0,0,0,4.513-15.06,27.653,27.653,0,1,0-12.97,23.31A1.486,1.486,0,0,1,990.574,2027.12Zm15.036-20.41a29.942,29.942,0,0,1-3.44,11.57l-0.31.58h13.18v-6.9a5.644,5.644,0,0,0-5.66-5.61h-3.74Zm-64.974-.36a5.637,5.637,0,0,0-5.659,5.61v6.9h13.181l-0.31-.58a29.95,29.95,0,0,1-3.446-11.57l-0.032-.36h-3.734Zm66.224-13.42a3.084,3.084,0,0,0-2.58,1.38l-0.11.16,0.06,0.18a30,30,0,0,1,1.48,8.25l0.01,0.29,0.27,0.08a3.259,3.259,0,0,0,.87.12h2.07a2.591,2.591,0,0,0,2.6-2.58v-5.3a2.591,2.591,0,0,0-2.6-2.58h-2.07Zm-65.28,0a3.078,3.078,0,0,0-3.093,3.06v4.33a3.08,3.08,0,0,0,3.093,3.07h2.063a1.6,1.6,0,0,0,.31-0.02l0.339-.04,0.012-.34a30.14,30.14,0,0,1,1.55-8.57l0.061-.18-0.108-.16a2.6,2.6,0,0,0-2.164-1.15H941.58Zm33.426,33.17a22.056,22.056,0,1,1,22.236-22.06A22.169,22.169,0,0,1,975.006,2026.1Zm-7.03-16.15c-4.372.58-7.23,2.92-7.647,6.25l-0.021.18,0.115,0.13a19.335,19.335,0,0,0,29.167,0l0.115-.13-0.021-.18c-0.416-3.33-3.275-5.67-7.647-6.25l-0.251-.03-5.524,8.61a1.5,1.5,0,0,1-2.511,0l-5.524-8.61Zm7.03,5.03,3.311-5.15H971.7Zm0-30.04a19.2,19.2,0,0,0-19.258,19.1,18.776,18.776,0,0,0,2,8.47l0.339,0.68,0.366-.66c1.663-3.01,5.047-5.03,9.284-5.53l0.627-.07-0.34-.53a9.267,9.267,0,0,1-1.388-5.02v-3.28c0-4.89,3.263-8.44,7.759-8.44h1.226c4.5,0,7.76,3.55,7.76,8.44v3.28a9.259,9.259,0,0,1-1.389,5.02l-0.34.53,0.628,0.07c4.237,0.5,7.621,2.52,9.284,5.53l0.366,0.66,0.338-.68a18.764,18.764,0,0,0,2-8.47A19.2,19.2,0,0,0,975.006,1984.94Zm-0.613,7.67c-3.3,0-4.782,2.76-4.782,5.49v3.28c0,2.73,1.479,5.49,4.782,5.49h1.226c3.3,0,4.783-2.76,4.783-5.49v-3.28c0-2.73-1.479-5.49-4.783-5.49h-1.226Zm0.613-24.1a1.49,1.49,0,0,1-1.488-1.48v-3.56a1.489,1.489,0,0,1,2.977,0v3.56A1.49,1.49,0,0,1,975.006,1968.51Zm17.806,4.73a1.5,1.5,0,0,1-.742-0.2,1.468,1.468,0,0,1-.545-2.02l1.792-3.07a1.49,1.49,0,0,1,2.033-.54,1.438,1.438,0,0,1,.694.89,1.454,1.454,0,0,1-.149,1.12l-1.792,3.08A1.489,1.489,0,0,1,992.812,1973.24Zm-35.612,0a1.487,1.487,0,0,1-1.29-.74l-1.792-3.08a1.46,1.46,0,0,1,.544-2.01,1.491,1.491,0,0,1,2.034.54l1.792,3.07a1.474,1.474,0,0,1-.545,2.02A1.494,1.494,0,0,1,957.2,1973.24Z" transform="translate(-932 -1962)"/>
</svg>
