<svg
        xmlns="http://www.w3.org/2000/svg"
        xmlns:xlink="http://www.w3.org/1999/xlink"
        width="27px" height="27px">
    <path fill-rule="evenodd"  fill="rgb(2, 59, 126)"
          d="M26.666,26.680 C26.453,26.893 26.174,26.999 25.895,26.999 C25.616,26.999 25.337,26.893 25.124,26.680 L18.698,20.248 C16.656,21.940 14.114,22.862 11.429,22.862 C8.378,22.862 5.509,21.674 3.352,19.515 C1.194,17.355 0.006,14.484 0.006,11.431 C0.006,8.377 1.194,5.507 3.352,3.348 C5.509,1.188 8.378,-0.001 11.429,-0.001 C14.480,-0.001 17.349,1.188 19.506,3.348 C21.664,5.507 22.852,8.377 22.852,11.431 C22.852,14.118 21.930,16.662 20.239,18.706 L26.666,25.137 C27.091,25.563 27.091,26.254 26.666,26.680 ZM11.429,2.180 C6.332,2.180 2.186,6.330 2.186,11.431 C2.186,16.532 6.332,20.682 11.429,20.682 C13.974,20.682 16.282,19.647 17.955,17.976 C17.957,17.973 17.958,17.970 17.960,17.967 C17.963,17.965 17.966,17.964 17.968,17.962 C19.638,16.287 20.672,13.978 20.672,11.431 C20.672,6.330 16.526,2.180 11.429,2.180 Z"/>
</svg>