<svg
        xmlns="http://www.w3.org/2000/svg"
        xmlns:xlink="http://www.w3.org/1999/xlink"
        width="142px" height="22px">
    <path fill-rule="evenodd"  fill="#fff"
          d="M136.649,7.031 L136.649,21.385 L130.231,21.385 L130.231,7.031 L124.990,7.031 L124.990,1.206 L141.894,1.206 L141.894,7.031 L136.649,7.031 ZM113.590,21.849 C108.958,21.849 104.518,19.769 104.518,13.542 L104.518,1.206 L110.964,1.206 L110.964,13.228 C110.964,15.097 111.913,15.882 113.590,15.882 C115.288,15.882 116.237,15.097 116.237,13.228 L116.237,1.206 L122.650,1.206 L122.650,13.542 C122.650,19.769 118.217,21.849 113.590,21.849 ZM96.941,21.385 L90.527,21.385 L90.527,7.031 L85.280,7.031 L85.280,1.206 L102.188,1.206 L102.188,7.031 L96.941,7.031 L96.941,21.385 ZM73.519,21.849 C66.486,21.849 62.943,17.089 62.943,11.295 C62.943,5.504 66.486,0.747 73.519,0.747 C80.544,0.747 84.086,5.504 84.086,11.295 C84.086,17.089 80.544,21.849 73.519,21.849 ZM73.519,6.773 C71.003,6.773 69.554,8.527 69.554,11.295 C69.554,14.062 71.003,15.824 73.519,15.824 C76.026,15.824 77.479,14.062 77.479,11.295 C77.479,8.527 76.026,6.773 73.519,6.773 ZM52.990,21.385 L43.480,21.385 L43.480,1.206 L53.244,1.206 C57.652,1.206 60.159,2.793 60.159,6.310 C60.159,8.382 59.377,9.853 57.371,10.660 C59.658,11.381 60.940,13.025 60.940,15.618 C60.940,20.201 57.095,21.385 52.990,21.385 ZM52.353,6.105 L49.921,6.105 L49.921,9.076 L52.353,9.104 C53.436,9.104 53.969,8.413 53.969,7.607 C53.969,6.773 53.436,6.105 52.353,6.105 ZM52.656,13.196 L49.921,13.196 L49.921,16.481 L52.656,16.481 C53.885,16.481 54.526,15.905 54.526,14.838 C54.526,13.773 53.885,13.196 52.656,13.196 ZM33.976,18.705 L27.223,18.705 L26.357,21.385 L19.834,21.385 L27.139,1.206 L34.059,1.206 L41.338,21.385 L34.809,21.385 L33.976,18.705 ZM31.157,9.593 C30.932,8.846 30.739,8.038 30.599,7.003 C30.459,8.038 30.265,8.846 30.068,9.593 L28.702,13.891 L32.521,13.891 L31.157,9.593 ZM12.093,21.385 L8.077,15.419 L6.570,15.419 L6.570,21.385 L0.126,21.385 L0.126,1.206 L9.191,1.206 C13.345,1.206 17.502,2.821 17.502,8.329 C17.502,11.469 16.110,13.341 14.157,14.349 L19.179,21.385 L12.093,21.385 ZM9.051,6.626 L6.570,6.626 L6.570,10.434 L9.051,10.434 C10.307,10.434 11.035,9.652 11.035,8.527 C11.035,7.404 10.307,6.626 9.051,6.626 Z"/>
</svg>