<?xml version="1.0" encoding="utf-8"?>
<!-- Generator: Adobe Illustrator 21.0.0, SVG Export Plug-In . SVG Version: 6.00 Build 0)  -->
<svg version="1.1" id="Layer_1" xmlns="http://www.w3.org/2000/svg" xmlns:xlink="http://www.w3.org/1999/xlink" x="0px" y="0px"
	 viewBox="0 0 136.3 33.8" style="enable-background:new 0 0 136.3 33.8;" xml:space="preserve">
<style type="text/css">
	.st0{fill:#1D1D1B;}
	.st1{fill:#2DC3E8;}
	.st2{fill:#EE2F53;}
	.st3{fill:#004185;}
</style>
<g>
	<g>
		<path class="st0" d="M2,28.9c1.2,0,2.1,0.4,2.1,1.6c0,1.3-0.9,1.6-2.1,1.6H1v1.7H0.2v-5H2z M2,29.7H1v1.8h1c0.7,0,1.3-0.2,1.3-0.9
			C3.3,29.9,2.7,29.7,2,29.7z"/>
		<path class="st0" d="M7.1,33.9l2.1-5h0.9l2.1,5h-0.9l-0.4-1.1H8.4L8,33.9H7.1z M8.7,32.1h1.9L9.7,30c0-0.1-0.1-0.2-0.1-0.3
			c0,0.1-0.1,0.2-0.1,0.3L8.7,32.1z"/>
		<path class="st0" d="M18,30.9c0.9,0,1.9,0.3,1.9,1.5c0,1.2-1,1.5-1.9,1.5h-2v-5h3.5v0.7h-2.7v1.2H18z M18,33.2
			c0.5,0,1.1-0.1,1.1-0.8c0-0.7-0.5-0.8-1.1-0.8h-1.2v1.6H18z"/>
		<path class="st0" d="M26.1,28.9c1.7,0,2.6,1.3,2.6,2.6c0,1.3-0.9,2.6-2.6,2.6c-1.8,0-2.6-1.3-2.6-2.6
			C23.5,30.1,24.4,28.9,26.1,28.9z M26.1,29.6c-1.2,0-1.8,0.9-1.8,1.8c0,1,0.6,1.8,1.8,1.8c1.2,0,1.8-0.9,1.8-1.8
			C27.9,30.5,27.4,29.6,26.1,29.6z"/>
		<path class="st0" d="M36.2,28.9v0.7h-1.6v4.2h-0.8v-4.2h-1.6v-0.7H36.2z"/>
		<path class="st0" d="M38.9,33.9l2.1-5h0.9l2.1,5h-0.9l-0.4-1.1h-2.5l-0.4,1.1H38.9z M40.5,32.1h1.9L41.5,30c0-0.1-0.1-0.2-0.1-0.3
			c0,0.1-0.1,0.2-0.1,0.3L40.5,32.1z"/>
		<path class="st0" d="M51.2,33.9v-3.1c0-0.2,0-0.4,0-0.5l-2.7,3.6h-0.8v-5h0.8V32c0,0.2,0,0.4,0,0.5l2.7-3.6H52v5H51.2z M50.9,28.2
			v-0.7c-0.4,0.2-0.7,0.3-1,0.3c-0.4,0-0.7-0.1-1-0.3v0.7c0.3,0.2,0.7,0.3,1,0.3C50.3,28.5,50.6,28.4,50.9,28.2z"/>
		<path class="st0" d="M64.8,28.9v0.7h-1.6v4.2h-0.8v-4.2h-1.6v-0.7H64.8z"/>
		<path class="st0" d="M69.2,34c-0.2,0-0.5,0-0.7-0.1v-0.7c0.2,0.1,0.4,0.1,0.6,0.1c0.4,0,0.7-0.2,0.9-0.6l0.1-0.2l-2-3.6h0.9
			l1.5,2.8l1.3-2.8h0.9l-1.8,3.8C70.4,33.7,69.8,34,69.2,34z"/>
		<path class="st0" d="M79.9,28.9v0.7h-1.6v4.2h-0.8v-4.2h-1.6v-0.7H79.9z"/>
	</g>
	<g>
		<path class="st1" d="M103.3,11.6c0,3.2-2.7,5.9-5.9,5.9c-3.2,0-5.9-2.6-5.9-5.9H84C84.1,24.8,97.4,34,97.4,34v-8.9
			c0,0,3.9,0.1,7.5-2.3c3.6-2.4,5.4-6.2,5.7-8.3c0-0.2,0.1-0.5,0.1-0.7c0.1-0.7,0.1-1.4,0.1-2.2H103.3z"/>
		<circle class="st2" cx="97.4" cy="5" r="4.8"/>
		<g>
			<path class="st3" d="M0.2,22.6v-11h5.1c2.3,0,4.7,0.9,4.7,3.9c0,1.7-0.8,2.7-1.9,3.3l2.8,3.8h-4l-2.3-3.2H3.8v3.2H0.2z M3.8,16.7
				h1.4c0.7,0,1.1-0.4,1.1-1c0-0.6-0.4-1-1.1-1H3.8V16.7z"/>
			<path class="st3" d="M11.3,22.6l4.1-11h3.9l4.1,11h-3.7l-0.5-1.5h-3.8L15,22.6H11.3z M16.3,18.5h2.1l-0.8-2.3
				c-0.1-0.4-0.2-0.8-0.3-1.4c-0.1,0.6-0.2,1-0.3,1.4L16.3,18.5z"/>
			<path class="st3" d="M30.1,11.6c2.5,0,3.9,0.9,3.9,2.8c0,1.1-0.4,1.9-1.6,2.4c1.3,0.4,2,1.3,2,2.7c0,2.5-2.2,3.1-4.5,3.1h-5.3
				v-11H30.1z M29.6,14.3h-1.4v1.6l1.4,0c0.6,0,0.9-0.4,0.9-0.8C30.5,14.7,30.2,14.3,29.6,14.3z M29.7,18.2h-1.5v1.8h1.5
				c0.7,0,1.1-0.3,1.1-0.9C30.8,18.5,30.4,18.2,29.7,18.2z"/>
			<path class="st3" d="M41.5,11.4c3.9,0,5.9,2.6,5.9,5.7c0,3.2-2,5.7-5.9,5.7c-4,0-5.9-2.6-5.9-5.7C35.5,14,37.5,11.4,41.5,11.4z
				 M41.5,14.7c-1.4,0-2.2,1-2.2,2.5s0.8,2.5,2.2,2.5c1.4,0,2.2-1,2.2-2.5S42.9,14.7,41.5,14.7z"/>
			<path class="st3" d="M57.6,11.6v3.2h-2.9v7.8H51v-7.8h-2.9v-3.2H57.6z"/>
			<path class="st3" d="M69.1,11.6v6.7c0,3.4-2.5,4.5-5.1,4.5c-2.6,0-5.1-1.1-5.1-4.5v-6.7h3.6v6.5c0,1,0.5,1.4,1.5,1.4
				c1,0,1.5-0.4,1.5-1.4v-6.5H69.1z"/>
			<path class="st3" d="M79.9,11.6v3.2H77v7.8h-3.6v-7.8h-2.9v-3.2H79.9z"/>
		</g>
		<g>
			<path class="st3" d="M114.9,22.6v-11h5.1c2.3,0,4.7,0.9,4.7,3.9c0,1.7-0.8,2.7-1.9,3.3l2.8,3.8h-4l-2.3-3.2h-0.8v3.2H114.9z
				 M118.5,16.7h1.4c0.7,0,1.1-0.4,1.1-1c0-0.6-0.4-1-1.1-1h-1.4V16.7z"/>
			<path class="st3" d="M136.5,11.6v6.7c0,3.4-2.5,4.5-5.1,4.5c-2.6,0-5.1-1.1-5.1-4.5v-6.7h3.6v6.5c0,1,0.5,1.4,1.5,1.4
				c1,0,1.5-0.4,1.5-1.4v-6.5H136.5z"/>
		</g>
	</g>
</g>
</svg>
