<?xml version="1.0" encoding="utf-8"?>
<!-- Generator: Adobe Illustrator 21.0.0, SVG Export Plug-In . SVG Version: 6.00 Build 0)  -->
<svg version="1.1" id="Layer_1" xmlns="http://www.w3.org/2000/svg" xmlns:xlink="http://www.w3.org/1999/xlink" x="0px" y="0px"
	 viewBox="0 0 392.5 392.5" style="enable-background:new 0 0 392.5 392.5;" xml:space="preserve">
	<g fill="#47BFE6">
		<g>
			<g>
				<path d="M100.2,165.9c-27.3,0-49.5,22.2-49.5,49.5s22.2,49.5,49.5,49.5s49.5-22.2,49.5-49.5S127.5,165.9,100.2,165.9z
					 M100.2,243.1c-15.3,0-27.6-12.3-27.6-27.6s12.4-27.6,27.6-27.6s27.6,12.3,27.6,27.6S115.5,243.1,100.2,243.1z"/>
			</g>
		</g>
		<g>
			<g>
				<path d="M200.3,380c-0.8-54.4-45.4-98.5-100.1-98.5c-55.3,0-100.1,44.9-100.1,100.1c0,6,4.8,10.9,10.9,10.9h178.5h0.1
					C201.4,392.5,200.5,380.6,200.3,380z M22.6,370.7c5.3-38.1,38.1-67.5,77.6-67.5s72.3,29.4,77.6,67.5H22.6z"/>
			</g>
		</g>
		<g>
			<g>
				<path d="M278.6,0c-62.8,0-114,51.1-114,114c0,25.3,8.5,50,24.1,70l-13.1,67.9c-0.8,4.4,1.1,8.9,4.8,11.3c3.4,2.1,9.5,1.7,12.3-0.5
					l53.5-39.6c10.6,3.2,21.4,4.7,32.2,4.7c62.8,0,114-51.1,114-114S341.5,0,278.6,0z M278.6,206.1c-10.3,0-20.6-1.7-30.5-5.3
					c-3.4-1.2-7.2-0.6-10.1,1.6l-35.6,26.2l8.8-45.5c0.6-3.2-0.3-6.7-2.4-9.2c-14.4-16.7-22.2-38-22.2-60c0-50.9,41.3-92.2,92.2-92.2
					s92.2,41.3,92.2,92.2C370.9,164.8,329.5,206.1,278.6,206.1z"/>
			</g>
		</g>
		<g>
			<g>
				<path d="M279.3,39.7c-0.3,0-0.4,0-0.6,0c-11.5,0-22.4,4.5-30.6,12.6c-8.3,8.3-13,19.3-13,31.1c0,6,4.8,10.9,10.9,10.9
					c6.1,0,10.9-4.8,10.9-10.9c0-5.9,2.3-11.4,6.5-15.5c4.1-4.1,9.8-6.4,15.6-6.3c11.5,0.1,21.3,10,21.5,21.5
					c0.1,7.8-3.7,14.7-10.3,18.9c-14.1,8.7-22.4,23.3-22.4,39c0,6,4.8,10.9,10.9,10.9c6,0,10.9-4.8,10.9-10.9
					c0-8.1,4.6-15.8,12.2-20.5c13.1-8.2,20.8-22.2,20.6-37.6C321.9,59.3,302.7,40.1,279.3,39.7z"/>
			</g>
		</g>
		<g>
			<g>
				<path d="M278.6,162.2c-6,0-10.9,4.8-10.9,10.9v4.2c0,6,4.8,10.9,10.9,10.9c6,0,10.9-4.8,10.9-10.9v-4.2
					C289.6,167,284.6,162.2,278.6,162.2z"/>
			</g>
		</g>
	</g>
</svg>
