<?xml version="1.0" standalone="no"?>
<!DOCTYPE svg PUBLIC "-//W3C//DTD SVG 20010904//EN"
 "http://www.w3.org/TR/2001/REC-SVG-20010904/DTD/svg10.dtd">
<svg version="1.0" xmlns="http://www.w3.org/2000/svg"
 width="1088.000000pt" height="1088.000000pt" viewBox="0 0 1088.000000 1088.000000"
 preserveAspectRatio="xMidYMid meet">
<metadata>
Created by potrace 1.11, written by Peter Selinger 2001-2013
</metadata>
<g transform="translate(0.000000,1088.000000) scale(0.100000,-0.100000)"
fill="#000000" stroke="none">
<path d="M5315 10874 c-16 -2 -64 -9 -105 -15 -599 -86 -1110 -545 -1261
-1133 -80 -312 -62 -659 50 -947 121 -312 321 -559 604 -746 504 -333 1180
-333 1684 0 283 187 483 434 604 746 131 337 132 754 4 1094 -193 515 -640
884 -1190 983 -79 15 -332 26 -390 18z"/>
<path d="M1125 7163 c2 -16 7 -101 10 -190 34 -1009 360 -2140 912 -3158 609
-1124 1468 -2186 2539 -3140 338 -302 802 -675 839 -675 13 0 15 178 15 1425
l0 1425 89 0 c125 0 508 44 686 79 763 150 1398 441 1975 905 146 118 480 447
599 591 367 443 640 924 804 1416 70 209 104 384 117 594 6 99 20 296 30 438
11 142 20 271 20 287 l0 30 -1199 0 -1199 0 -6 -67 c-29 -325 -91 -554 -211
-781 -179 -337 -428 -601 -749 -790 -234 -138 -462 -215 -751 -253 -127 -16
-402 -6 -538 20 -738 142 -1314 672 -1507 1387 -27 99 -54 267 -66 417 l-6 67
-1204 0 -1203 0 4 -27z"/>
</g>
</svg>
